<svg xmlns="http://www.w3.org/2000/svg" viewBox="0 0 116.78 108.53"><defs><style>.cls-1{fill:#231f20;}</style></defs><g id="Layer_2" data-name="Layer 2"><path class="cls-1" d="M79.93,19.73a4.84,4.84,0,0,0-.71-1.53,5.84,5.84,0,0,0-1.17-1.26,5.49,5.49,0,0,0-1.49-.84,4.53,4.53,0,0,0-1.6-.3H57.4a19.51,19.51,0,0,0-8.14,1.59,14.17,14.17,0,0,0-5.61,4.43A14.58,14.58,0,0,0,41,28.62a21.75,21.75,0,0,0,.7,8.66l5.76,21.47h7.78L52.4,48.21H79.77L82.6,58.75h7.79ZM50.31,40.42l-.84-3.14a14.7,14.7,0,0,1-.58-5.56,9.13,9.13,0,0,1,1.3-3.82,7.44,7.44,0,0,1,2.45-2.39,12.47,12.47,0,0,1,2.84-1.29A13.19,13.19,0,0,1,58,23.69c.75-.07,1.24-.1,1.48-.1H73.18l4.51,16.83Z"/><path class="cls-1" d="M116.36,96.73,92.47,7.55A10.58,10.58,0,0,0,82.9,0H19.2A2.82,2.82,0,0,0,18,.26a2.28,2.28,0,0,0-.7.53L.45,23.73a2.78,2.78,0,0,0-.34,2.33L19.05,96.73c1.74,6.5,8.45,11.8,15,11.8h73.72C114.23,108.53,118.11,103.23,116.36,96.73ZM84.67,6.61a1.31,1.31,0,0,1,1.19.94L101.79,67a.7.7,0,0,1-.69.94H41.65a1.32,1.32,0,0,1-1.2-.94L24.27,6.61ZM106,101.92H32.24a7.27,7.27,0,0,1-6.58-5.19L7.09,27.43,18.92,11.28,33.85,67a10.56,10.56,0,0,0,9.57,7.55h59.45a7.14,7.14,0,0,0,.93-.06l6,22.24C110.52,99.59,108.82,101.92,106,101.92Z"/></g></svg>