<svg xmlns="http://www.w3.org/2000/svg" viewBox="0 0 116.78 108.53"><defs><style>.cls-1{fill:#231f20;}</style></defs><g id="Layer_2" data-name="Layer 2"><path class="cls-1" d="M83.87,45.58c.88-1.66,3.23-2,3.63-4.11l-2.35.35a35.34,35.34,0,0,1-7.91.76A8,8,0,0,1,70.84,39c-.38-.54-.39-.85,0-1.22A10,10,0,0,0,74,32.31c.07-.41.12-.84.19-1.33-1.44,0-2.57.72-4.1-.05.47-1.6.94-3.17,1.41-4.74L71.27,26a4.13,4.13,0,0,0-.89.18c-1.57.68-3.15,1.35-4.68,2.09-2.43,1.16-4.76,2.49-7.64,2.9A6.46,6.46,0,0,1,52.6,29.7a3,3,0,0,1-1.18-2.16,8.6,8.6,0,0,0-5.19-7.07,10.52,10.52,0,0,0-6.08-.92,3.4,3.4,0,0,0-3,2.11,1.32,1.32,0,0,1-.8.6,2,2,0,0,0-1.42,1.5l1.55.6c1.22.46,1.47.89,1,1.84-.22.48-.47.94-.68,1.36a12.93,12.93,0,0,1,1.36.77c.69.49,1.09,1,.9,1.81a9.74,9.74,0,0,0-.34,3.46,12.08,12.08,0,0,0,4.74,8.23C45,43,46.65,44,48.24,45.07c1,.71,2.08,1.46,3.06,2.27.72.6.66,1.11-.07,1.39-.27.1-.63.08-.91.16s-.56.17-.59.35.23.53.45.7a6.31,6.31,0,0,0,1.13.71c.65.34,1.32.62,2,1s.78.63.45,1.15a3.39,3.39,0,0,0-.43.82c-.25.77,0,1.08.88,1.25A7.17,7.17,0,0,0,59.48,54a1.16,1.16,0,0,1,1.08-.08c1.13.37,2.26.77,3.39,1,2.14.52,3.48,0,4.06-1.44.15-.38.12-.63-.38-.91a20.65,20.65,0,0,1-2.07-1.32c-.64-.48-1.23-1-1.85-1.57.13-.15.16-.22.21-.24a7,7,0,0,1,.91-.32,26,26,0,0,1,12.31-.28,81.29,81.29,0,0,1,9.2,2.89c2,.69,4,1.61,6,2.44A58.27,58.27,0,0,0,83.87,45.58ZM41.66,23.37a1,1,0,0,1-1-.83c-.12-.49.13-.79.58-.79s.88.33,1.12,1.06C42.17,23,42,23.33,41.66,23.37Z"/><path class="cls-1" d="M116.36,96.73,92.47,7.55A10.58,10.58,0,0,0,82.9,0H19.2A2.82,2.82,0,0,0,18,.26a2.28,2.28,0,0,0-.7.53L.45,23.73a2.78,2.78,0,0,0-.34,2.33L19.05,96.73c1.74,6.5,8.45,11.8,15,11.8h73.72C114.23,108.53,118.11,103.23,116.36,96.73ZM84.67,6.61a1.31,1.31,0,0,1,1.19.94L101.79,67a.7.7,0,0,1-.69.94H41.65a1.32,1.32,0,0,1-1.2-.94L24.27,6.61ZM106,101.92H32.24a7.27,7.27,0,0,1-6.58-5.19L7.09,27.43,18.92,11.28,33.85,67a10.56,10.56,0,0,0,9.57,7.55h59.45a7.14,7.14,0,0,0,.93-.06l6,22.24C110.52,99.59,108.82,101.92,106,101.92Z"/></g></svg>