<svg xmlns="http://www.w3.org/2000/svg" viewBox="0 0 124.34 108.53"><defs><style>.cls-1{fill:#231f20;}</style></defs><g id="Layer_2" data-name="Layer 2"><path class="cls-1" d="M96,58.75H67.89a12.54,12.54,0,0,1-2.39-.25,15.21,15.21,0,0,1-2.67-.8,16,16,0,0,1-2.69-1.39,14.28,14.28,0,0,1-2.52-2.07,15,15,0,0,1-2.12-2.81A14.83,14.83,0,0,1,54,47.82L48.38,26.73A11.85,11.85,0,0,1,48,24.41,10,10,0,0,1,48.15,22a7.94,7.94,0,0,1,.78-2.32,6.54,6.54,0,0,1,1.56-2,7.58,7.58,0,0,1,2.43-1.36,10.47,10.47,0,0,1,3.46-.51h28.1l2.08,7.79H58.47a2.46,2.46,0,0,0-2.12.81,2.76,2.76,0,0,0-.17,2.39l5.64,21a4.17,4.17,0,0,0,1.44,2.32A4,4,0,0,0,65.8,51H93.9Z"/><path class="cls-1" d="M123.92,96.73,100,7.55A10.59,10.59,0,0,0,90.45,0H26.76a2.82,2.82,0,0,0-1.21.26,2.31,2.31,0,0,0-.71.53L1.63,32.45A9.76,9.76,0,0,0,.41,40.79l15,55.94c1.74,6.5,8.45,11.8,15,11.8h84.93C121.79,108.53,125.67,103.23,123.92,96.73ZM92.22,6.61a1.31,1.31,0,0,1,1.2.94L109.35,67a.7.7,0,0,1-.69.94H49.21A1.32,1.32,0,0,1,48,67L31.83,6.61Zm21.3,95.31H28.59A7.26,7.26,0,0,1,22,96.73L7,40.79a4.28,4.28,0,0,1,.53-3.66L26.47,11.28,41.4,67A10.57,10.57,0,0,0,51,74.55h59.45a7.26,7.26,0,0,0,.93-.06l6,22.24C118.08,99.59,116.38,101.92,113.52,101.92Z"/></g></svg>