<svg xmlns="http://www.w3.org/2000/svg" viewBox="0 0 124.34 108.53"><defs><style>.cls-1{fill:#231f20;}</style></defs><g id="Layer_2" data-name="Layer 2"><path class="cls-1" d="M99.87,73.45H71.78a12.6,12.6,0,0,1-2.39-.26,14.67,14.67,0,0,1-2.67-.79A16.17,16.17,0,0,1,64,71a13.41,13.41,0,0,1-2.51-2.06,14.65,14.65,0,0,1-2.12-2.82,14.85,14.85,0,0,1-1.48-3.61L52.26,41.43a12,12,0,0,1-.36-2.32A10.11,10.11,0,0,1,52,36.65a8.38,8.38,0,0,1,.79-2.32,6.5,6.5,0,0,1,1.56-2A7.31,7.31,0,0,1,56.81,31a10.76,10.76,0,0,1,3.46-.5H88.36l2.09,7.78H62.35a2.48,2.48,0,0,0-2.12.81,2.78,2.78,0,0,0-.16,2.4l5.63,21a4.21,4.21,0,0,0,1.45,2.32,4,4,0,0,0,2.54.83H97.78Z"/><path class="cls-1" d="M123.92,96.73l-20-74.49a10.57,10.57,0,0,0-9.57-7.55H30.64a2.78,2.78,0,0,0-1.2.26c-.26.12.71.88,0,0L4.53,30.63A9.24,9.24,0,0,0,.39,40.7l0,.09,15,55.94c1.74,6.5,8.45,11.8,15,11.8h84.93C121.79,108.53,125.67,103.23,123.92,96.73ZM96.11,21.3a1.32,1.32,0,0,1,1.2.94L113.24,81.7a.7.7,0,0,1-.69.94H53.09a1.31,1.31,0,0,1-1.19-.94L35.72,21.3Zm17.41,80.62H28.59A7.26,7.26,0,0,1,22,96.73L7,40.79a4.28,4.28,0,0,1,.53-3.66L29.64,23.51,45.29,81.7a10.58,10.58,0,0,0,9.57,7.55h59.46a5.62,5.62,0,0,0,.92-.07l2.07,7.55C118.08,99.59,116.38,101.92,113.52,101.92Z"/></g></svg>