<svg xmlns="http://www.w3.org/2000/svg" viewBox="0 0 116.78 108.53"><defs><style>.cls-1{fill:#231f20;}</style></defs><g id="Layer_2" data-name="Layer 2"><polygon class="cls-1" points="48.43 33.35 75.78 33.35 71.08 15.8 78.86 15.8 90.37 58.75 82.58 58.75 77.88 41.2 50.54 41.2 55.24 58.75 47.45 58.75 35.94 15.8 43.73 15.8 48.43 33.35"/><path class="cls-1" d="M116.36,96.73,92.47,7.55A10.58,10.58,0,0,0,82.9,0H19.2A2.82,2.82,0,0,0,18,.26a2.28,2.28,0,0,0-.7.53L.45,23.73a2.78,2.78,0,0,0-.34,2.33L19.05,96.73c1.74,6.5,8.45,11.8,15,11.8h73.72C114.23,108.53,118.11,103.23,116.36,96.73ZM84.67,6.61a1.31,1.31,0,0,1,1.19.94L101.79,67a.7.7,0,0,1-.69.94H41.65a1.32,1.32,0,0,1-1.2-.94L24.27,6.61ZM106,101.92H32.24a7.27,7.27,0,0,1-6.58-5.19L7.09,27.43,18.92,11.28,33.85,67a10.56,10.56,0,0,0,9.57,7.55h59.45a7.14,7.14,0,0,0,.93-.06l6,22.24C110.52,99.59,108.82,101.92,106,101.92Z"/></g></svg>