<svg xmlns="http://www.w3.org/2000/svg" viewBox="0 0 116.78 108.53"><defs><style>.cls-1{fill:#231f20;}</style></defs><g id="Layer_2" data-name="Layer 2"><polygon class="cls-1" points="52.33 48.05 79.67 48.05 74.97 30.5 82.76 30.5 94.26 73.45 86.48 73.45 81.77 55.89 54.43 55.89 59.13 73.45 51.34 73.45 39.84 30.5 47.62 30.5 52.33 48.05"/><path class="cls-1" d="M116.36,96.73l-20-74.49a10.57,10.57,0,0,0-9.57-7.55H23.09a2.86,2.86,0,0,0-1.21.26c-.25.12.5,1.33,0,0L.45,23.73a2.78,2.78,0,0,0-.34,2.33L19.05,96.73c1.74,6.5,8.45,11.8,15,11.8h73.72C114.23,108.53,118.11,103.23,116.36,96.73ZM88.56,21.3a1.31,1.31,0,0,1,1.19.94L105.68,81.7a.7.7,0,0,1-.69.94H45.54a1.31,1.31,0,0,1-1.19-.94L28.16,21.3ZM106,101.92H32.24a7.27,7.27,0,0,1-6.58-5.19L7.09,27.43l14.64-5.66,16,59.93a10.57,10.57,0,0,0,9.57,7.55h59.45a5.65,5.65,0,0,0,.93-.07l2.07,7.55C110.52,99.59,108.82,101.92,106,101.92Z"/></g></svg>