<svg xmlns="http://www.w3.org/2000/svg" viewBox="0 0 116.78 108.53"><defs><style>.cls-1{fill:#231f20;}</style></defs><g id="Layer_2" data-name="Layer 2"><path class="cls-1" d="M83.68,33.77a16.17,16.17,0,0,1,.62,4.76,10.38,10.38,0,0,1-.8,3.7A8.43,8.43,0,0,1,81.65,45a10.52,10.52,0,0,1-2.57,1.86,12,12,0,0,1-3,1.05,14.24,14.24,0,0,1-3,.33H55.53l-2.09-7.79H71.05a7.58,7.58,0,0,0,2.55-.61,4.4,4.4,0,0,0,1.72-1.34,4.19,4.19,0,0,0,.81-2,6.75,6.75,0,0,0-.24-2.68l-1-3.53a13.1,13.1,0,0,0-1.35-2.7,9.18,9.18,0,0,0-1.86-2.09,8.43,8.43,0,0,0-2.36-1.37,7.86,7.86,0,0,0-2.83-.49H49a2.51,2.51,0,0,0-2.15.81,2.71,2.71,0,0,0-.18,2.33l8.58,32H47.45l-8.58-32a10.29,10.29,0,0,1-.27-5.09,7.17,7.17,0,0,1,1.82-3.38,7.51,7.51,0,0,1,3-1.87,10.7,10.7,0,0,1,3.38-.59H64.46a17.55,17.55,0,0,1,4.91.67,19,19,0,0,1,4.18,1.8A18.09,18.09,0,0,1,77,20.86a24.54,24.54,0,0,1,2.68,3.07,19.61,19.61,0,0,1,1.93,3.24,18.1,18.1,0,0,1,1.15,3.07Z"/><path class="cls-1" d="M116.36,96.73,92.47,7.55A10.58,10.58,0,0,0,82.9,0H19.2A2.82,2.82,0,0,0,18,.26a2.28,2.28,0,0,0-.7.53L.45,23.73a2.78,2.78,0,0,0-.34,2.33L19.05,96.73c1.74,6.5,8.45,11.8,15,11.8h73.72C114.23,108.53,118.11,103.23,116.36,96.73ZM84.67,6.61a1.31,1.31,0,0,1,1.19.94L101.79,67a.7.7,0,0,1-.69.94H41.65a1.32,1.32,0,0,1-1.2-.94L24.27,6.61ZM106,101.92H32.24a7.27,7.27,0,0,1-6.58-5.19L7.09,27.43,18.92,11.28,33.85,67a10.56,10.56,0,0,0,9.57,7.55h59.45a7.14,7.14,0,0,0,.93-.06l6,22.24C110.52,99.59,108.82,101.92,106,101.92Z"/></g></svg>