<svg xmlns="http://www.w3.org/2000/svg" viewBox="0 0 116.78 108.53"><defs><style>.cls-1{fill:#231f20;}</style></defs><g id="Layer_2" data-name="Layer 2"><path class="cls-1" d="M116.36,96.73l-20-74.49a10.57,10.57,0,0,0-9.57-7.55H23.09a2.86,2.86,0,0,0-1.21.26c-.25.12.5,1.33,0,0L.45,23.73a2.78,2.78,0,0,0-.34,2.33L19.05,96.73c1.74,6.5,8.45,11.8,15,11.8h73.72C114.23,108.53,118.11,103.23,116.36,96.73ZM88.56,21.3a1.31,1.31,0,0,1,1.19.94L105.68,81.7a.7.7,0,0,1-.69.94H45.54a1.31,1.31,0,0,1-1.19-.94L28.16,21.3ZM106,101.92H32.24a7.27,7.27,0,0,1-6.58-5.19L7.09,27.43l14.64-5.66,16,59.93a10.57,10.57,0,0,0,9.57,7.55h59.45a5.65,5.65,0,0,0,.93-.07l2.07,7.55C110.52,99.59,108.82,101.92,106,101.92Z"/><path class="cls-1" d="M87.5,48.47a15.73,15.73,0,0,1,.61,4.76,10.22,10.22,0,0,1-.79,3.7,8.54,8.54,0,0,1-1.85,2.74,10.28,10.28,0,0,1-2.58,1.85,11.93,11.93,0,0,1-3,1,14.24,14.24,0,0,1-3,.33H59.35l-2.09-7.78H74.87a7.82,7.82,0,0,0,2.55-.62,4.45,4.45,0,0,0,1.72-1.33,4.19,4.19,0,0,0,.81-2,6.73,6.73,0,0,0-.24-2.68l-.95-3.54a12.77,12.77,0,0,0-1.35-2.69,9.45,9.45,0,0,0-1.86-2.1,8.4,8.4,0,0,0-2.36-1.36,7.9,7.9,0,0,0-2.83-.5H52.81a2.49,2.49,0,0,0-2.15.81,2.69,2.69,0,0,0-.18,2.34l8.58,32H51.27l-8.58-32a10.07,10.07,0,0,1-.27-5.09A7.12,7.12,0,0,1,44.24,33a7.62,7.62,0,0,1,3-1.87,10.62,10.62,0,0,1,3.37-.58H68.27a17.26,17.26,0,0,1,4.92.67,18.35,18.35,0,0,1,7.6,4.39,23.85,23.85,0,0,1,2.68,3.07,20.25,20.25,0,0,1,1.93,3.23,19,19,0,0,1,1.15,3.07Z"/></g></svg>