<svg xmlns="http://www.w3.org/2000/svg" viewBox="0 0 116.78 108.53"><defs><style>.cls-1{fill:#ef3c36;}.cls-2{fill:#231f20;}</style></defs><g id="Layer_2" data-name="Layer 2"><path class="cls-1" d="M71.48,26.19l-1.41,4.74c1.53.77,2.66,0,4.1.05-.07.49-.12.92-.19,1.33a10,10,0,0,1-3.15,5.44c-.38.37-.37.68,0,1.22a8,8,0,0,0,6.4,3.61,35.48,35.48,0,0,0,7.92-.76l2.34-.35c-.4,2.15-2.75,2.45-3.63,4.11a58.27,58.27,0,0,1,8.47,8.59c-2-.83-4-1.75-6-2.44a81.29,81.29,0,0,0-9.2-2.89,26,26,0,0,0-12.31.28,7,7,0,0,0-.91.32c-.05,0-.08.09-.21.23.62.54,1.21,1.1,1.85,1.58a20.65,20.65,0,0,0,2.07,1.32c.5.28.53.53.38.91-.58,1.43-1.92,2-4.06,1.44-1.13-.27-2.26-.67-3.39-1a1.16,1.16,0,0,0-1.08.08,7.17,7.17,0,0,1-5.31.88c-.92-.17-1.13-.48-.88-1.25a3.39,3.39,0,0,1,.43-.82c.33-.52.26-.77-.45-1.15s-1.31-.63-2-1a6.31,6.31,0,0,1-1.13-.71c-.22-.17-.48-.53-.45-.7s.35-.28.59-.35.64-.06.91-.16c.73-.28.79-.79.07-1.39-1-.81-2-1.56-3.06-2.27C46.65,44,45,43,43.44,41.83A12.08,12.08,0,0,1,38.7,33.6,9.74,9.74,0,0,1,39,30.14c.19-.82-.21-1.32-.9-1.81a12.93,12.93,0,0,0-1.36-.77c.21-.42.46-.88.68-1.36.44-.95.19-1.38-1-1.84l-1.55-.6a2,2,0,0,1,1.42-1.5,1.32,1.32,0,0,0,.8-.6,3.4,3.4,0,0,1,3-2.11,10.52,10.52,0,0,1,6.08.92,8.6,8.6,0,0,1,5.19,7.07A3,3,0,0,0,52.6,29.7a6.46,6.46,0,0,0,5.46,1.48c2.88-.42,5.21-1.74,7.64-2.9,1.53-.74,3.11-1.41,4.68-2.09a4.13,4.13,0,0,1,.89-.18ZM42.34,22.81c-.24-.73-.63-1.06-1.12-1.06s-.7.3-.58.79a1,1,0,0,0,1,.83C42,23.33,42.17,23,42.34,22.81Z"/><path class="cls-2" d="M82.9,0H19.2A2.82,2.82,0,0,0,18,.26a2.28,2.28,0,0,0-.7.53L.45,23.73a2.78,2.78,0,0,0-.34,2.33L19.05,96.73c1.74,6.5,8.45,11.8,15,11.8h73.72c6.5,0,10.38-5.3,8.63-11.8L92.47,7.55A10.58,10.58,0,0,0,82.9,0ZM40.45,67,24.27,6.61h60.4a1.31,1.31,0,0,1,1.19.94L101.79,67a.7.7,0,0,1-.69.94H41.65A1.32,1.32,0,0,1,40.45,67Zm3,7.55h59.45a7.14,7.14,0,0,0,.93-.06l6,22.24c.76,2.86-.94,5.19-3.8,5.19H32.24a7.27,7.27,0,0,1-6.58-5.19L7.09,27.43,18.92,11.28,33.85,67A10.56,10.56,0,0,0,43.42,74.55Z"/></g></svg>