<svg xmlns="http://www.w3.org/2000/svg" viewBox="0 0 116.78 108.53"><defs><style>.cls-1{fill:#231f20;}.cls-2{fill:#ef3c36;}</style></defs><g id="Layer_2" data-name="Layer 2"><path class="cls-1" d="M116.36,96.73l-20-74.49a10.57,10.57,0,0,0-9.57-7.55H23.09a2.86,2.86,0,0,0-1.21.26c-.25.12.5,1.33,0,0L.45,23.73a2.78,2.78,0,0,0-.34,2.33L19.05,96.73c1.74,6.5,8.45,11.8,15,11.8h73.72C114.23,108.53,118.11,103.23,116.36,96.73ZM88.56,21.3a1.31,1.31,0,0,1,1.19.94L105.68,81.7a.7.7,0,0,1-.69.94H45.54a1.31,1.31,0,0,1-1.19-.94L28.16,21.3ZM106,101.92H32.24a7.27,7.27,0,0,1-6.58-5.19L7.09,27.43l14.64-5.66,16,59.93a10.57,10.57,0,0,0,9.57,7.55h59.45a5.65,5.65,0,0,0,.93-.07l2.07,7.55C110.52,99.59,108.82,101.92,106,101.92Z"/><path class="cls-2" d="M87.76,60.18c.88-1.65,3.23-2,3.63-4.1l-2.34.34a34.29,34.29,0,0,1-7.92.76,8,8,0,0,1-6.4-3.6c-.37-.55-.39-.86,0-1.22a10,10,0,0,0,3.14-5.44c.08-.42.12-.84.19-1.34-1.44,0-2.57.72-4.1,0,.48-1.61.94-3.18,1.41-4.75l-.2-.17a4.22,4.22,0,0,0-.9.17c-1.57.68-3.15,1.36-4.68,2.09C67.16,44,64.83,45.37,62,45.78a6.4,6.4,0,0,1-5.46-1.48,3,3,0,0,1-1.18-2.16,8.63,8.63,0,0,0-5.18-7.07A10.64,10.64,0,0,0,44,34.15a3.41,3.41,0,0,0-3,2.11c-.1.3-.48.49-.8.61a2,2,0,0,0-1.42,1.5l1.55.59c1.22.46,1.47.89,1,1.84-.22.48-.47,1-.68,1.36.51.29,1,.49,1.36.77.69.49,1.09,1,.9,1.82a9.9,9.9,0,0,0-.34,3.45,12.07,12.07,0,0,0,4.74,8.23c1.53,1.19,3.21,2.14,4.8,3.24,1,.72,2.08,1.46,3.06,2.27.72.61.66,1.12-.07,1.4-.27.1-.63.07-.91.16s-.56.16-.59.35.24.52.45.7a6.93,6.93,0,0,0,1.13.71c.65.33,1.32.61,2,1s.78.63.45,1.16a3.56,3.56,0,0,0-.43.82c-.25.77,0,1.07.89,1.24a7.15,7.15,0,0,0,5.3-.87,1.11,1.11,0,0,1,1.08-.08c1.13.36,2.26.77,3.39,1,2.14.51,3.48,0,4.06-1.45.15-.37.12-.62-.38-.9-.7-.41-1.41-.84-2.07-1.32s-1.23-1-1.85-1.58c.13-.15.16-.22.21-.24a8.88,8.88,0,0,1,.91-.32A26.16,26.16,0,0,1,81,63.45a79.09,79.09,0,0,1,9.19,2.88c2,.7,4,1.61,6,2.45A58.4,58.4,0,0,0,87.76,60.18ZM45.56,38a1,1,0,0,1-1-.82c-.12-.5.13-.79.58-.79s.88.32,1.13,1.06C46.06,37.57,45.87,37.93,45.56,38Z"/></g></svg>